<svg width="319.122" height="164.311" viewBox="0 0 84.434 43.474" xmlns="http://www.w3.org/2000/svg"><path d="M52.957 52.638v-5.131l-.66-1.27v-9.449q0-2.286-1.423-3.505-1.372-1.27-4.42-1.27-1.981 0-4.013.66-2.032.61-3.454 1.728l-3.252-6.554q2.337-1.524 5.588-2.336 3.302-.864 6.554-.864 6.705 0 10.363 3.099 3.708 3.048 3.708 9.601v15.29zm-8.128.457q-3.302 0-5.588-1.118-2.286-1.117-3.506-3.048-1.168-1.93-1.168-4.318 0-2.54 1.27-4.368 1.32-1.88 4.013-2.845 2.693-1.016 6.96-1.016h6.502v5.029h-5.181q-2.337 0-3.302.762-.915.762-.915 2.032t.965 2.032q.966.762 2.642.762 1.575 0 2.845-.762 1.32-.813 1.93-2.438l1.321 3.556q-.762 2.844-2.997 4.318-2.185 1.422-5.791 1.422zm23.215-.457V25.104h9.652v27.534zm4.826-30.582q-2.641 0-4.267-1.473-1.626-1.473-1.626-3.658 0-2.184 1.626-3.657 1.626-1.473 4.267-1.473 2.642 0 4.267 1.422 1.626 1.372 1.626 3.556 0 2.286-1.626 3.81-1.574 1.473-4.267 1.473zm28.397 31.039q-3.708 0-6.197-1.524-2.439-1.524-3.658-4.674-1.219-3.15-1.219-8.077 0-4.826 1.27-7.975 1.32-3.15 3.81-4.674 2.49-1.524 5.994-1.524 3.76 0 6.808 1.727 3.098 1.727 4.876 4.928 1.83 3.15 1.83 7.518 0 4.42-1.83 7.62-1.778 3.15-4.876 4.928-3.048 1.727-6.808 1.727zm-17.322-.457V14.944h9.652v14.783l-.508 9.093.05 9.093v4.725zm15.29-7.214q1.626 0 2.896-.762 1.32-.762 2.083-2.235.813-1.524.813-3.607t-.813-3.505q-.762-1.473-2.083-2.235-1.27-.762-2.896-.762-1.625 0-2.946.762-1.27.762-2.083 2.235-.762 1.422-.762 3.505t.762 3.607q.813 1.473 2.083 2.235 1.32.762 2.946.762z" style="font-weight:800;font-size:50.8px;line-height:0;font-family:Montserrat;-inkscape-font-specification:'Montserrat Ultra-Bold';white-space:pre;inline-size:100.589;fill:#6b7280;stroke-width:.256" transform="matrix(1.05263 0 0 1.05263 -36.386 -12.415)" aria-label="aib"/></svg>