<svg width="446.983" height="74.514" viewBox="0 0 118.264 19.715" xmlns="http://www.w3.org/2000/svg"><path d="M7.126 25.17V6.213h9.696q3.737 0 5.578 1.38 1.842 1.355 1.842 3.576 0 1.462-.785 2.572-.759 1.084-2.167 1.734-1.381.622-3.304.622l.542-1.3q2.004 0 3.493.623 1.49.596 2.302 1.76.84 1.138.84 2.79 0 2.464-2.004 3.846-1.977 1.354-5.796 1.354zm5.308-3.873h4.496q1.381 0 2.085-.46.731-.488.731-1.463 0-.975-.73-1.435-.705-.488-2.086-.488h-4.875v-3.71h4.062q1.355 0 2.032-.46t.677-1.381q0-.921-.677-1.354-.677-.46-2.032-.46h-3.683zm13.243 3.873 8.368-18.957h5.281l8.395 18.957h-5.578L35.589 8.84h2.112l-6.553 16.33zm4.577-3.683 1.381-3.954h9.262l1.381 3.954zm28.165 4.062q-2.248 0-4.171-.704-1.896-.732-3.304-2.058-1.381-1.327-2.166-3.115-.786-1.814-.786-3.98 0-2.167.786-3.955.785-1.814 2.166-3.141 1.408-1.327 3.304-2.031 1.923-.731 4.17-.731 2.627 0 4.686.92 2.085.921 3.466 2.654l-3.412 3.088q-.921-1.084-2.031-1.652-1.084-.57-2.438-.57-1.164 0-2.14.38-.974.38-1.678 1.11-.677.705-1.083 1.707-.38 1.002-.38 2.22 0 1.219.38 2.22.406 1.003 1.083 1.734.704.704 1.679 1.083.975.38 2.14.38 1.353 0 2.437-.57 1.11-.568 2.03-1.651l3.413 3.087q-1.381 1.706-3.466 2.654-2.059.92-4.685.92zm15.328-4.577-.298-6.012L81.6 6.213h5.904l-8.124 8.801-2.98 3.115zm-4.794 4.198V6.213h5.308V25.17zm12.728 0-6.174-7.827L79 13.606l8.91 11.564zm16.114.379q-4.198 0-6.554-2.302t-2.356-6.527V6.213h5.362v10.345q0 2.437.948 3.493.975 1.056 2.654 1.056 1.68 0 2.627-1.056.948-1.056.948-3.493V6.213h5.28V16.72q0 4.225-2.355 6.527-2.357 2.302-6.554 2.302zm19.2 0q-2.328 0-4.495-.569-2.14-.596-3.493-1.516l1.76-3.954q1.273.812 2.925 1.354 1.679.514 3.33.514 1.111 0 1.788-.19.677-.216.975-.54.325-.353.325-.813 0-.65-.596-1.03-.596-.379-1.544-.622-.947-.244-2.112-.488-1.137-.244-2.302-.623-1.137-.379-2.085-.975-.948-.622-1.544-1.597-.596-1.002-.596-2.519 0-1.706.921-3.087.948-1.381 2.817-2.22 1.868-.84 4.658-.84 1.868 0 3.656.433 1.814.406 3.222 1.219l-1.652 3.98q-1.354-.73-2.68-1.083-1.328-.379-2.573-.379-1.11 0-1.788.244-.677.216-.975.596-.298.379-.298.866 0 .623.57 1.002.595.352 1.543.596.975.217 2.112.46 1.165.244 2.302.623 1.165.352 2.112.975.948.596 1.517 1.598.596.975.596 2.464 0 1.652-.948 3.06-.92 1.382-2.79 2.221-1.841.84-4.657.84z" style="font-weight:800;font-size:44.9945px;line-height:0;font-family:Montserrat;-inkscape-font-specification:'Montserrat Ultra-Bold';fill:#6b7280;stroke-width:.136473" aria-label="BACKUS" transform="translate(-7.126 -5.834)"/></svg>