<svg width="413.797" height="91.593" xmlns="http://www.w3.org/2000/svg"><path style="fill:#fdfdf9" d="M343.744 107.841c1.52-.23 3.77-.224 5 .014 1.23.237-.014.425-2.764.418-2.75-.008-3.756-.202-2.236-.432zm-266.859-2.532c-1.889-2.232-1.888-2.237.095-.604 1.1.906 2.9 1.866 4 2.134 1.924.469 1.92.492-.095.604-1.152.063-2.952-.897-4-2.134zm282.674-2.334c.048-1.165.285-1.402.605-.604.288.722.253 1.584-.08 1.917-.332.332-.568-.259-.525-1.313zM36.427 94.81l-3.447-3.75 3.75 3.446c3.49 3.207 4.21 4.054 3.447 4.054-.167 0-1.855-1.688-3.75-3.75zm277.926 2c-1.244-1.586-1.209-1.622.377-.378.963.755 1.75 1.542 1.75 1.75 0 .823-.82.293-2.127-1.372zm-211.873-1.75c1.292-1.375 2.574-2.5 2.85-2.5.274 0-.558 1.125-1.85 2.5-1.291 1.375-2.573 2.5-2.848 2.5-.275 0 .557-1.125 1.848-2.5zm237.405-1.75-1.905-2.25 2.25 1.905c2.115 1.79 2.706 2.595 1.905 2.595-.19 0-1.202-1.013-2.25-2.25zm-286-12-1.905-2.25 2.25 1.905c2.115 1.79 2.706 2.595 1.905 2.595-.19 0-1.202-1.013-2.25-2.25zm249-3-1.905-2.25 2.25 1.905c2.115 1.79 2.706 2.595 1.905 2.595-.19 0-1.202-1.013-2.25-2.25zm-254.532-1.5c-1.244-1.586-1.209-1.622.377-.378.963.755 1.75 1.542 1.75 1.75 0 .823-.82.293-2.127-1.372zm278-1c-1.244-1.586-1.209-1.622.377-.378 1.666 1.306 2.196 2.128 1.373 2.128-.208 0-.995-.788-1.75-1.75zM115.559 57.975c.048-1.165.285-1.402.605-.604.288.722.253 1.584-.08 1.917-.332.332-.568-.259-.525-1.313zm-92-1c.048-1.165.285-1.402.605-.604.288.722.253 1.584-.08 1.917-.332.332-.568-.259-.525-1.313zM66.48 47.06c1.866-1.925 3.618-3.5 3.893-3.5.275 0-1.027 1.575-2.893 3.5-1.865 1.925-3.617 3.5-3.892 3.5-.275 0 1.027-1.575 2.892-3.5zm13-6.813c0-.172 1.463-1.635 3.25-3.25l3.25-2.937-2.937 3.25c-2.737 3.029-3.563 3.71-3.563 2.937zm-48-5.065c0-.208.788-.995 1.75-1.75 1.587-1.244 1.622-1.208.378.378-1.306 1.665-2.128 2.195-2.128 1.372zm73.405-2.872-1.905-2.25 2.25 1.905c2.115 1.79 2.706 2.595 1.905 2.595-.19 0-1.202-1.013-2.25-2.25zM40.48 26.18c0-.208.788-.995 1.75-1.75 1.587-1.244 1.622-1.208.378.378-1.306 1.665-2.128 2.195-2.128 1.372z" transform="translate(-23.554 -16.68)"/><path style="fill:#fdfbf3" d="M64.638 103.559c0-1.375.227-1.938.505-1.25.277.687.277 1.812 0 2.5-.278.687-.505.125-.505-1.25zm250.28-7.25-2.938-3.25 3.25 2.937c3.03 2.737 3.71 3.563 2.938 3.563-.173 0-1.635-1.463-3.25-3.25zm-212.938-1.75c2.149-2.2 4.131-4 4.406-4 .275 0-1.257 1.8-3.406 4-2.148 2.2-4.13 4-4.405 4-.275 0 1.257-1.8 3.405-4zm-48.553-12.75-3.447-3.75 3.75 3.446c3.49 3.207 4.21 4.054 3.447 4.054-.167 0-1.855-1.688-3.75-3.75zm14.132-1.834c.048-1.165.285-1.402.605-.604.288.722.253 1.584-.08 1.917-.332.332-.568-.259-.525-1.313zm262.326-.666-1.905-2.25 2.25 1.905c2.115 1.79 2.706 2.595 1.905 2.595-.19 0-1.202-1.013-2.25-2.25zM24.56 71.975c.048-1.165.285-1.402.605-.604.288.722.253 1.584-.08 1.917-.332.332-.568-.259-.525-1.313zm91.153-9.416c0-1.925.206-2.713.458-1.75.251.962.251 2.537 0 3.5-.252.962-.458.175-.458-1.75zM30.23 60.853c1.238-.239 3.263-.239 4.5 0 1.238.238.225.433-2.25.433s-3.487-.195-2.25-.433zM78.48 42.18c0-.208.788-.995 1.75-1.75 1.587-1.244 1.622-1.208.378.378-1.306 1.665-2.128 2.195-2.128 1.372zm-44-9.935c0-.172 1.463-1.635 3.25-3.25l3.25-2.937-2.937 3.25c-2.737 3.029-3.563 3.71-3.563 2.937z" transform="translate(-23.554 -16.68)"/><path style="fill:#f9f9f8" d="M131.776 99.814c4.288-.187 11.038-.186 15 .003 3.963.19.454.343-7.796.342-8.25-.001-11.491-.157-7.204-.345zm81.704-1.255c-.9-.583-1.024-.976-.309-.985.656-.009 1.47.435 1.81.985.767 1.241.42 1.241-1.5 0zm-91.547-37.5c0-20.35.134-28.533.296-18.185.163 10.348.163 26.998 0 37-.163 10.002-.296 1.535-.296-18.815zm61.42 33.75c-1.244-1.586-1.209-1.622.377-.378 1.666 1.306 2.196 2.128 1.373 2.128-.208 0-.995-.788-1.75-1.75zm248.627-.25c.996-1.1 2.035-2 2.31-2 .275 0-.314.9-1.31 2-.995 1.1-2.035 2-2.31 2-.275 0 .315-.9 1.31-2zm-260.5-.378c0-.208.788-.995 1.75-1.75 1.587-1.244 1.622-1.208.378.378-1.306 1.665-2.128 2.195-2.128 1.372zm68.873-1.372c-1.244-1.586-1.209-1.622.377-.378 1.666 1.306 2.196 2.128 1.373 2.128-.208 0-.995-.788-1.75-1.75zM138.9 82.209c-.285-.742-.359-4.454-.165-8.25l.354-6.9.196 7.704.195 7.704 6.75.35 6.75.35-6.78.196c-4.912.142-6.925-.177-7.3-1.154zm129.58.972c0-.208.788-.995 1.75-1.75 1.587-1.244 1.622-1.208.378.378-1.306 1.665-2.128 2.195-2.128 1.372zm126.768-4.347c1.798-.223 4.498-.218 6 .01 1.503.228.032.41-3.268.405-3.3-.006-4.529-.193-2.732-.415zm-117-3c1.798-.223 4.498-.218 6 .01 1.503.228.032.41-3.268.405-3.3-.006-4.529-.193-2.732-.415zm-121.895-6.025c-1.244-1.586-1.209-1.622.377-.378 1.666 1.306 2.196 2.128 1.373 2.128-.208 0-.995-.788-1.75-1.75zm48.895-6.975c1.798-.223 4.498-.218 6 .01 1.503.228.032.41-3.268.405-3.3-.006-4.529-.193-2.732-.415zm-31.895-2.025c-1.244-1.586-1.209-1.622.377-.378 1.666 1.306 2.196 2.128 1.373 2.128-.208 0-.995-.788-1.75-1.75zm6.206.166c.048-1.165.285-1.402.605-.604.288.722.253 1.584-.08 1.917-.332.332-.568-.259-.525-1.313zm71.921 1.206c0-.208.788-.995 1.75-1.75 1.587-1.244 1.622-1.208.378.378-1.306 1.665-2.128 2.195-2.128 1.372zm173.75-.346c1.788-.222 4.713-.222 6.5 0 1.788.222.325.404-3.25.404s-5.037-.182-3.25-.404zM210.353 57.81c-1.244-1.586-1.209-1.622.377-.378 1.666 1.306 2.196 2.128 1.373 2.128-.208 0-.995-.788-1.75-1.75zm-71.438-12.75.065-7 5.755-.083 5.755-.082-5.462.381-5.462.38-.358 6.702-.359 6.702zm99.565 7.187c0-.172 1.463-1.635 3.25-3.25l3.25-2.937-2.937 3.25c-2.737 3.029-3.563 3.71-3.563 2.937zm43.405-2.937-1.905-2.25 2.25 1.905c1.238 1.047 2.25 2.06 2.25 2.25 0 .8-.804.209-2.595-1.905zm-113.48-20.5-2.425-2.75 2.75 2.424c1.513 1.333 2.75 2.57 2.75 2.75 0 .784-.81.146-3.075-2.424zm-37.175-6.993c3.988-.19 10.513-.19 14.5 0 3.988.19.725.345-7.25.345s-11.237-.155-7.25-.345z" transform="translate(-23.554 -16.68)"/><path style="fill:#fcfaeb" d="M61.293 106.875c.722-.288 1.584-.253 1.917.08.332.332-.259.568-1.313.525-1.165-.048-1.402-.285-.604-.605zM36.918 94.31l-2.938-3.25 3.25 2.937c3.03 2.737 3.71 3.563 2.938 3.563-.173 0-1.635-1.463-3.25-3.25zm266.435-16.5c-1.244-1.586-1.209-1.622.377-.378 1.666 1.306 2.196 2.128 1.373 2.128-.208 0-.995-.788-1.75-1.75zm-235.6-3.25c0-2.475.195-3.488.433-2.25.239 1.237.239 3.262 0 4.5-.238 1.237-.433.225-.433-2.25zm-2.273-27.5c1.292-1.375 2.574-2.5 2.85-2.5.274 0-.558 1.125-1.85 2.5-1.291 1.375-2.573 2.5-2.848 2.5-.275 0 .557-1.125 1.848-2.5zm17.5-9.5c.996-1.1 2.035-2 2.31-2 .275 0-.314.9-1.31 2-.995 1.1-2.034 2-2.31 2-.274 0 .315-.9 1.31-2zm-4.42-16.584c.047-1.165.284-1.402.604-.604.288.722.253 1.584-.08 1.917-.332.332-.568-.259-.525-1.313z" transform="translate(-23.554 -16.68)"/><path style="fill:#f5f5f5" d="M200.293 100.875c.722-.288 1.584-.253 1.917.08.332.332-.259.568-1.313.525-1.165-.048-1.402-.285-.604-.605zm144.06-6.066c-1.244-1.586-1.209-1.622.377-.378.963.755 1.75 1.542 1.75 1.75 0 .823-.82.293-2.127-1.372zM194.98 63.559c.34-.55.817-1 1.06-1 .242 0 .44.45.44 1s-.476 1-1.059 1c-.582 0-.78-.45-.44-1z" transform="translate(-23.554 -16.68)"/><path style="fill:#fcf9e3" d="M103.353 31.809c-1.244-1.586-1.209-1.622.377-.378.963.755 1.75 1.542 1.75 1.75 0 .823-.82.293-2.127-1.372zm-39.06-14.934c.722-.288 1.584-.253 1.917.08.332.332-.259.568-1.313.525-1.165-.048-1.402-.285-.604-.605zm7.457-.01c.972-.253 2.322-.236 3 .038.677.274-.12.481-1.77.46-1.65-.02-2.203-.244-1.23-.497z" transform="translate(-23.554 -16.68)"/><path style="fill:#f1f1f1" d="M261.293 100.875c.722-.288 1.584-.253 1.917.08.332.332-.259.568-1.313.525-1.165-.048-1.402-.285-.604-.605zm152 0c.722-.288 1.584-.253 1.917.08.332.332-.259.568-1.313.525-1.165-.048-1.402-.285-.604-.605zm-38.94-3.066c-1.244-1.586-1.209-1.622.377-.378 1.666 1.306 2.196 2.128 1.373 2.128-.208 0-.995-.788-1.75-1.75zm-144.465-17.25c0-9.075.151-12.788.336-8.25.186 4.537.186 11.962 0 16.5-.185 4.537-.336.825-.336-8.25zm177.465 4.25c-1.244-1.586-1.209-1.622.377-.378 1.666 1.306 2.196 2.128 1.373 2.128-.208 0-.995-.788-1.75-1.75zm-155-3c-1.244-1.586-1.209-1.622.377-.378 1.666 1.306 2.196 2.128 1.373 2.128-.208 0-.995-.788-1.75-1.75zm-73.873-5.75c0-1.925.176-3.5.391-3.5.215 0 .575 1.575.8 3.5.224 1.925.048 3.5-.391 3.5-.44 0-.8-1.575-.8-3.5zm195.403-15.5c0-8.525.153-12.013.34-7.75.188 4.262.188 11.237 0 15.5-.187 4.262-.34.775-.34-7.75zm-20.093 8.5c.006-3.3.193-4.53.415-2.733.223 1.798.218 4.498-.01 6-.228 1.503-.41.033-.405-3.267zm-75.542-3.225c1.798-.223 4.498-.218 6 .01 1.503.228.032.41-3.268.405-3.3-.006-4.529-.193-2.732-.415zm-136-13c1.798-.223 4.498-.218 6 .01 1.503.228.032.41-3.268.405-3.3-.006-4.529-.193-2.732-.415z" transform="translate(-23.554 -16.68)"/><path style="fill:#faf5e3" d="M24.638 56.559c0-1.375.227-1.938.505-1.25.277.687.277 1.812 0 2.5-.278.687-.505.125-.505-1.25zM67.23 16.896c.688-.277 1.813-.277 2.5 0 .688.278.125.505-1.25.505s-1.937-.227-1.25-.505z" transform="translate(-23.554 -16.68)"/><path style="fill:#fbf8dc" d="M80.293 105.875c.722-.288 1.584-.253 1.917.08.332.332-.259.568-1.313.525-1.165-.048-1.402-.285-.604-.605zm249.06-26.066c-1.244-1.586-1.209-1.622.377-.378 1.666 1.306 2.196 2.128 1.373 2.128-.208 0-.995-.788-1.75-1.75z" transform="translate(-23.554 -16.68)"/><path style="fill:#f9f4db" d="m315.885 96.309-1.905-2.25 2.25 1.905c2.115 1.79 2.706 2.595 1.905 2.595-.19 0-1.202-1.013-2.25-2.25zm-263.48-14.5-2.425-2.75 2.75 2.424c1.513 1.333 2.75 2.57 2.75 2.75 0 .784-.81.146-3.075-2.424zM36.98 30.559c.996-1.1 2.035-2 2.31-2 .275 0-.314.9-1.31 2-.995 1.1-2.034 2-2.31 2-.274 0 .315-.9 1.31-2z" transform="translate(-23.554 -16.68)"/><path style="fill:#faf5d3" d="M344.242 106.851c1.244-.239 3.044-.23 4 .02s-.061.447-2.262.435c-2.2-.01-2.982-.215-1.738-.455zM101.48 94.06c1.292-1.375 2.574-2.5 2.85-2.5.274 0-.558 1.125-1.85 2.5-1.291 1.375-2.573 2.5-2.848 2.5-.275 0 .557-1.125 1.848-2.5z" transform="translate(-23.554 -16.68)"/><path style="fill:#e9e9e9" d="M389.48 71.059c0-13.659.221-24.613.49-24.343.68.68.737 47.95.059 48.628-.302.301-.549-10.627-.549-24.285zm41 24.122c0-.208.788-.995 1.75-1.75 1.587-1.244 1.622-1.208.378.378-1.306 1.665-2.128 2.195-2.128 1.372zM179.56 82.975c.047-1.165.284-1.402.604-.604.288.722.253 1.584-.08 1.917-.332.332-.568-.259-.525-1.313zm257.078-1.416c0-1.375.227-1.938.505-1.25.277.687.277 1.812 0 2.5-.278.687-.505.125-.505-1.25zm-98.758-18.5c.001-8.25.157-11.492.345-7.205.188 4.288.186 11.038-.003 15-.19 3.963-.343.455-.342-7.795zM205.73 75.842c1.513-.229 3.988-.229 5.5 0 1.513.23.275.417-2.75.417s-4.262-.188-2.75-.417zM353.823 54.06c.004-4.4.18-6.076.391-3.724.211 2.352.208 5.952-.007 8s-.388.124-.384-4.276zm-72.47-4.25c-1.244-1.586-1.209-1.622.377-.378.963.755 1.75 1.542 1.75 1.75 0 .823-.82.293-2.127-1.372zm62.391-6.968c1.52-.23 3.77-.224 5 .014 1.23.237-.014.425-2.764.418-2.75-.008-3.756-.202-2.236-.432zm36 0c1.52-.23 3.77-.224 5 .014 1.23.237-.014.425-2.764.418-2.75-.008-3.756-.202-2.236-.432zm-64.014-.999c1.513-.229 3.988-.229 5.5 0 1.513.23.275.417-2.75.417s-4.262-.188-2.75-.417z" transform="translate(-23.554 -16.68)"/><path style="fill:#faf4cb" d="M64.98 46.559c.996-1.1 2.035-2 2.31-2 .275 0-.314.9-1.31 2-.995 1.1-2.035 2-2.31 2-.275 0 .315-.9 1.31-2z" transform="translate(-23.554 -16.68)"/><path style="fill:#f6eed2" d="m37.405 93.809-2.425-2.75 2.75 2.424c1.513 1.333 2.75 2.57 2.75 2.75 0 .784-.81.146-3.075-2.424zM25.559 71.975c.048-1.165.285-1.402.605-.604.288.722.253 1.584-.08 1.917-.332.332-.568-.259-.525-1.313z" transform="translate(-23.554 -16.68)"/><path style="fill:#e5e5e5" d="M363.293 85.875c.722-.288 1.584-.253 1.917.08.332.332-.259.568-1.313.525-1.165-.048-1.402-.285-.604-.605zM240.98 50.56c.996-1.1 2.035-2 2.31-2 .275 0-.314.9-1.31 2-.995 1.1-2.034 2-2.31 2-.274 0 .315-.9 1.31-2zm-36.75-8.663c.688-.277 1.813-.277 2.5 0 .688.278.125.505-1.25.505s-1.937-.227-1.25-.505zm57.063-.02c.722-.29 1.584-.254 1.917.078.332.333-.259.57-1.313.526-1.165-.048-1.402-.285-.604-.605zm-93.408-12.567-1.905-2.25 2.25 1.905c1.238 1.047 2.25 2.06 2.25 2.25 0 .8-.804.209-2.595-1.905z" transform="translate(-23.554 -16.68)"/><path style="fill:#f5eccb" d="M303.353 76.809c-1.244-1.586-1.209-1.622.377-.378 1.666 1.306 2.196 2.128 1.373 2.128-.208 0-.995-.788-1.75-1.75zM31.23 59.896c.688-.277 1.813-.277 2.5 0 .688.278.125.505-1.25.505s-1.937-.227-1.25-.505z" transform="translate(-23.554 -16.68)"/><path style="fill:#f9f1bb" d="M68.753 74.559c0-2.475.195-3.488.433-2.25.239 1.237.239 3.262 0 4.5-.238 1.237-.433.225-.433-2.25z" transform="translate(-23.554 -16.68)"/><path style="fill:#e1e1e1" d="M220.242 98.851c1.244-.239 3.044-.23 4 .02s-.062.446-2.262.435c-2.2-.01-2.982-.215-1.738-.455zm160 0c1.244-.239 3.044-.23 4 .02s-.061.446-2.262.435c-2.2-.01-2.982-.215-1.738-.455zM261.293 85.875c.722-.288 1.584-.253 1.917.08.332.332-.259.568-1.313.525-1.165-.048-1.402-.285-.604-.605zM142.23 66.835c1.788-.222 4.713-.222 6.5 0 1.788.222.325.404-3.25.404s-5.037-.182-3.25-.404zm44.012-2.984c1.244-.239 3.044-.23 4 .02s-.062.446-2.262.435c-2.2-.01-2.982-.215-1.738-.455zM173.56 42.975c.048-1.165.285-1.402.605-.604.288.722.253 1.584-.08 1.917-.332.332-.568-.259-.525-1.313zm238.734-1.1c.722-.288 1.584-.253 1.917.08.332.332-.259.568-1.313.525-1.165-.048-1.402-.285-.604-.605z" transform="translate(-23.554 -16.68)"/><path style="fill:#f5eaab" d="M316.353 95.809c-1.244-1.586-1.209-1.622.377-.378.963.755 1.75 1.542 1.75 1.75 0 .823-.82.293-2.127-1.372zm-264-13c-1.244-1.586-1.209-1.622.377-.378.963.755 1.75 1.542 1.75 1.75 0 .823-.82.293-2.127-1.372z" transform="translate(-23.554 -16.68)"/><path style="fill:#f6eba3" d="M68.73 17.87c.963-.252 2.538-.252 3.5 0 .963.25.175.457-1.75.457s-2.712-.206-1.75-.458z" transform="translate(-23.554 -16.68)"/><path style="fill:#f1e2ab" d="M25.56 55.975c.047-1.165.284-1.402.604-.604.288.722.253 1.584-.08 1.917-.332.332-.568-.259-.525-1.313z" transform="translate(-23.554 -16.68)"/><path style="fill:#d4d4d4" d="M132.687 98.818c3.688-.192 9.988-.193 14-.003 4.011.19.993.347-6.707.35-7.7 0-10.982-.155-7.293-.347zm-9.756-37.76c0-19.25.134-26.983.298-17.185.164 9.798.164 25.548 0 35-.165 9.452-.299 1.436-.298-17.814zm19.3 22.777c1.787-.222 4.712-.222 6.5 0 1.787.222.324.404-3.25.404-3.576 0-5.038-.182-3.25-.404zm-4.408-8.776c.004-4.4.18-6.076.391-3.724.211 2.352.208 5.952-.007 8s-.388.124-.384-4.276zm258.407 4.794c1.238-.239 3.263-.239 4.5 0 1.238.238.225.433-2.25.433s-3.487-.195-2.25-.433zM278.744 76.84c1.52-.23 3.77-.224 5 .014 1.23.237-.014.425-2.764.418-2.75-.008-3.756-.202-2.236-.432zm-73.496-13.007c1.798-.223 4.498-.218 6 .01 1.503.228.032.41-3.268.405-3.3-.006-4.529-.193-2.732-.415zm220.982-2.981c1.238-.239 3.263-.239 4.5 0 1.238.238.225.433-2.25.433s-3.487-.195-2.25-.433zM137.817 45.559c0-4.125.176-5.813.392-3.75.216 2.062.216 5.437 0 7.5-.216 2.062-.392.375-.392-3.75zm84.536 3.25c-1.244-1.586-1.209-1.622.377-.378 1.666 1.306 2.196 2.128 1.373 2.128-.208 0-.995-.788-1.75-1.75zM141.73 36.842c1.513-.229 3.988-.229 5.5 0 1.513.23.275.417-2.75.417s-4.262-.188-2.75-.417zm-8.958-14.026c3.735-.193 9.585-.191 13 .003 3.415.195.358.353-6.792.351-7.15-.002-9.943-.161-6.208-.354z" transform="translate(-23.554 -16.68)"/><path style="fill:#f6eb9b" d="M344.23 105.853c1.238-.239 3.263-.239 4.5 0 1.238.238.225.433-2.25.433s-3.487-.195-2.25-.433zM63.48 47.18c0-.208.788-.995 1.75-1.75 1.587-1.244 1.622-1.208.378.378-1.306 1.665-2.128 2.195-2.128 1.372z" transform="translate(-23.554 -16.68)"/><path style="fill:#f6ea93" d="m337.885 94.309-1.905-2.25 2.25 1.905c2.115 1.79 2.706 2.595 1.905 2.595-.19 0-1.202-1.013-2.25-2.25z" transform="translate(-23.554 -16.68)"/><path style="fill:#eedda7" d="m37.885 93.309-1.905-2.25 2.25 1.905c2.115 1.79 2.706 2.595 1.905 2.595-.19 0-1.202-1.013-2.25-2.25z" transform="translate(-23.554 -16.68)"/><path style="fill:#cdcdcd" d="M241.353 91.809c-1.244-1.586-1.209-1.622.377-.378 1.666 1.306 2.196 2.128 1.373 2.128-.208 0-.995-.788-1.75-1.75z" transform="translate(-23.554 -16.68)"/><path style="fill:#f6e983" d="M113.675 62.059c.02-1.65.245-2.204.498-1.231.254.973.237 2.323-.037 3-.274.677-.481-.12-.46-1.77zm-12.79-30.75-1.905-2.25 2.25 1.905c2.115 1.79 2.706 2.595 1.905 2.595-.19 0-1.202-1.013-2.25-2.25z" transform="translate(-23.554 -16.68)"/><path style="fill:#c9c9c9" d="M413.293 99.875c.722-.288 1.584-.253 1.917.08.332.332-.259.568-1.313.525-1.165-.048-1.402-.285-.604-.605zM280.885 50.31l-1.905-2.25 2.25 1.905c1.238 1.047 2.25 2.06 2.25 2.25 0 .8-.804.209-2.595-1.905z" transform="translate(-23.554 -16.68)"/><path style="fill:#f4e482" d="m327.885 80.309-1.905-2.25 2.25 1.905c2.115 1.79 2.706 2.595 1.905 2.595-.19 0-1.202-1.013-2.25-2.25z" transform="translate(-23.554 -16.68)"/><path style="fill:#ebd797" d="M30.23 58.853c1.238-.239 3.263-.239 4.5 0 1.238.238.225.433-2.25.433s-3.487-.195-2.25-.433z" transform="translate(-23.554 -16.68)"/><path style="fill:#c4c4c4" d="M228.883 80.559c0-8.525.153-12.013.34-7.75.188 4.262.188 11.237 0 15.5-.187 4.262-.34.775-.34-7.75zm-51.17-4c0-1.925.205-2.713.457-1.75.251.962.251 2.537 0 3.5-.252.962-.458.175-.458-1.75zm197.167-15.5c.001-8.25.157-11.492.345-7.205.188 4.288.186 11.038-.003 15-.19 3.963-.343.455-.342-7.795zm-22.09 8c.006-3.3.193-4.53.415-2.733.223 1.798.218 4.498-.01 6-.228 1.503-.41.033-.405-3.267zm-74.56-4.206c1.238-.239 3.263-.239 4.5 0 1.238.238.225.433-2.25.433s-3.487-.195-2.25-.433zm-135.982-11.02c1.798-.222 4.498-.217 6 .011 1.503.228.032.41-3.268.405-3.3-.006-4.529-.193-2.732-.415z" transform="translate(-23.554 -16.68)"/><path style="fill:#f3e373" d="M69.712 74.559c0-1.925.206-2.713.458-1.75.251.962.251 2.537 0 3.5-.252.962-.458.175-.458-1.75z" transform="translate(-23.554 -16.68)"/><path style="fill:#f0de77" d="M316.353 94.809c-1.244-1.586-1.209-1.622.377-.378.963.755 1.75 1.542 1.75 1.75 0 .823-.82.293-2.127-1.372zm-264.468-11.5-1.905-2.25 2.25 1.905c2.115 1.79 2.706 2.595 1.905 2.595-.19 0-1.202-1.013-2.25-2.25z" transform="translate(-23.554 -16.68)"/><path style="fill:#f3e46b" d="M99.98 93.559c.996-1.1 2.035-2 2.31-2 .275 0-.314.9-1.31 2-.995 1.1-2.035 2-2.31 2-.275 0 .315-.9 1.31-2z" transform="translate(-23.554 -16.68)"/><path style="fill:#f3e364" d="M83.48 40.181c0-.208.788-.995 1.75-1.75 1.587-1.244 1.622-1.208.378.378-1.306 1.665-2.128 2.195-2.128 1.372z" transform="translate(-23.554 -16.68)"/><path style="fill:#f0dd66" d="M63.98 45.559c.996-1.1 2.035-2 2.31-2 .275 0-.314.9-1.31 2-.995 1.1-2.035 2-2.31 2-.275 0 .315-.9 1.31-2zm.25-26.663c.688-.277 1.813-.277 2.5 0 .688.278.125.505-1.25.505s-1.937-.227-1.25-.505z" transform="translate(-23.554 -16.68)"/><path style="fill:#f3e25b" d="M69.242 18.851c1.244-.239 3.044-.23 4 .02s-.062.446-2.262.435c-2.2-.01-2.982-.215-1.738-.455z" transform="translate(-23.554 -16.68)"/><path style="fill:#e4c976" d="m37.885 92.309-1.905-2.25 2.25 1.905c2.115 1.79 2.706 2.595 1.905 2.595-.19 0-1.202-1.013-2.25-2.25zm-11.06-35.294c-.325-.848-.368-1.766-.095-2.04.273-.272.736.422 1.03 1.544.623 2.383-.07 2.75-.934.496z" transform="translate(-23.554 -16.68)"/><path style="fill:#f1dd55" d="M343.744 104.841c1.52-.23 3.77-.224 5 .014 1.23.237-.014.425-2.764.418-2.75-.008-3.756-.202-2.236-.432zm-15.391-23.032c-1.244-1.586-1.209-1.622.377-.378 1.666 1.306 2.196 2.128 1.373 2.128-.208 0-.995-.788-1.75-1.75z" transform="translate(-23.554 -16.68)"/><path style="fill:#b5b5b5" d="M388.914 71.059c0-13.75.14-19.514.313-12.809.173 6.706.173 17.956.001 25-.172 7.045-.313 1.559-.314-12.191zM180.559 82.975c.048-1.165.285-1.402.605-.604.288.722.253 1.584-.08 1.917-.332.332-.568-.259-.525-1.313zm255.08-1.416c0-1.375.226-1.938.504-1.25.277.687.277 1.812 0 2.5-.278.687-.505.125-.505-1.25zm-96.759-18.5c.001-8.25.157-11.492.345-7.205.188 4.288.186 11.038-.003 15-.19 3.963-.343.455-.342-7.795zM206.744 74.84c1.52-.23 3.77-.224 5 .014 1.23.237-.013.425-2.764.418-2.75-.008-3.756-.202-2.236-.432zm146.08-20.782c.003-4.4.179-6.076.39-3.724.211 2.352.208 5.952-.007 8s-.388.124-.384-4.276zm-8.594-10.206c1.238-.239 3.263-.239 4.5 0 1.238.238.225.433-2.25.433s-3.487-.195-2.25-.433zm36 0c1.238-.239 3.263-.239 4.5 0 1.238.238.225.433-2.25.433s-3.487-.195-2.25-.433zm-64.5-1.01c1.513-.23 3.988-.23 5.5 0 1.513.228.275.416-2.75.416s-4.262-.188-2.75-.417z" transform="translate(-23.554 -16.68)"/><path style="fill:#f4e347" d="M112.56 64.975c.047-1.165.284-1.402.604-.604.288.722.253 1.584-.08 1.917-.332.332-.568-.259-.525-1.313zm0-6c.047-1.165.284-1.402.604-.604.288.722.253 1.584-.08 1.917-.332.332-.568-.259-.525-1.313zM100.352 31.81c-1.244-1.586-1.209-1.622.377-.378.963.755 1.75 1.542 1.75 1.75 0 .823-.82.293-2.127-1.372z" transform="translate(-23.554 -16.68)"/><path style="fill:#e4c768" d="M37.293 57.875c.722-.288 1.584-.253 1.917.08.332.332-.259.568-1.313.525-1.165-.048-1.402-.285-.604-.605z" transform="translate(-23.554 -16.68)"/><path style="fill:#f3e239" d="M97.48 95.246c0-.172 1.463-1.635 3.25-3.25l3.25-2.937-2.937 3.25c-2.737 3.029-3.563 3.71-3.563 2.937zm15.08-33.27c.047-1.166.284-1.403.604-.605.288.722.253 1.584-.08 1.917-.332.332-.568-.259-.525-1.313z" transform="translate(-23.554 -16.68)"/><path style="fill:#ecd349" d="m316.885 94.309-1.905-2.25 2.25 1.905c2.115 1.79 2.706 2.595 1.905 2.595-.19 0-1.202-1.013-2.25-2.25zm-265.48-10.5-2.425-2.75 2.75 2.424c1.513 1.333 2.75 2.57 2.75 2.75 0 .784-.81.146-3.075-2.424z" transform="translate(-23.554 -16.68)"/><path style="fill:#e5c857" d="M36.48 34.246c0-.172 1.463-1.635 3.25-3.25l3.25-2.937-2.937 3.25c-2.737 3.029-3.563 3.71-3.563 2.937z" transform="translate(-23.554 -16.68)"/><path style="fill:#ababab" d="M204.23 42.896c.688-.277 1.813-.277 2.5 0 .688.278.125.505-1.25.505s-1.937-.227-1.25-.505zm57.063-.02c.722-.29 1.584-.254 1.917.078.332.333-.259.57-1.313.526-1.165-.048-1.402-.285-.604-.605z" transform="translate(-23.554 -16.68)"/><path style="fill:#f0db33" d="M70.712 74.559c0-1.925.206-2.713.458-1.75.251.962.251 2.537 0 3.5-.252.962-.458.175-.458-1.75zM83.48 41.18c0-.208.788-.995 1.75-1.75 1.587-1.244 1.622-1.208.378.378-1.306 1.665-2.128 2.195-2.128 1.372z" transform="translate(-23.554 -16.68)"/><path style="fill:#edd43b" d="M63.48 45.059c1.292-1.375 2.574-2.5 2.85-2.5.274 0-.558 1.125-1.85 2.5-1.291 1.375-2.573 2.5-2.848 2.5-.275 0 .557-1.125 1.848-2.5z" transform="translate(-23.554 -16.68)"/><path style="fill:#f3e027" d="M101.353 33.809c-1.244-1.586-1.209-1.622.377-.378 1.666 1.306 2.196 2.128 1.373 2.128-.208 0-.995-.788-1.75-1.75z" transform="translate(-23.554 -16.68)"/><path style="fill:#e0be57" d="M33.293 57.875c.722-.288 1.584-.253 1.917.08.332.332-.259.568-1.313.525-1.165-.048-1.402-.285-.604-.605z" transform="translate(-23.554 -16.68)"/><path style="fill:#f3e019" d="M99.48 92.059c1.292-1.375 2.574-2.5 2.85-2.5.274 0-.558 1.125-1.85 2.5-1.291 1.375-2.573 2.5-2.848 2.5-.275 0 .557-1.125 1.848-2.5zm12.08-25.084c.047-1.165.284-1.402.604-.604.288.722.253 1.584-.08 1.917-.332.332-.568-.259-.525-1.313z" transform="translate(-23.554 -16.68)"/><path style="fill:#a4a4a4" d="M220.242 97.851c1.244-.239 3.044-.23 4 .02s-.062.446-2.262.435c-2.2-.01-2.982-.215-1.738-.455zm160 0c1.244-.239 3.044-.23 4 .02s-.061.446-2.262.435c-2.2-.01-2.982-.215-1.738-.455zM261.293 86.875c.722-.288 1.584-.253 1.917.08.332.332-.259.568-1.313.525-1.165-.048-1.402-.285-.604-.605zM141.208 65.837c1.775-.221 4.925-.225 7-.008 2.075.216.622.397-3.228.401-3.85.005-5.547-.172-3.772-.393zm45.034-2.986c1.244-.239 3.044-.23 4 .02s-.062.446-2.262.435c-2.2-.01-2.982-.215-1.738-.455zm206.317-2.876c.048-1.165.285-1.402.605-.604.288.722.253 1.584-.08 1.917-.332.332-.568-.259-.525-1.313zM172.64 43.56c0-1.375.226-1.938.504-1.25.277.687.277 1.812 0 2.5-.278.687-.505.125-.505-1.25zm239.591-.663c.688-.277 1.813-.277 2.5 0 .688.278.125.505-1.25.505s-1.937-.227-1.25-.505z" transform="translate(-23.554 -16.68)"/><path style="fill:#eed42a" d="M65.23 19.896c.688-.277 1.813-.277 2.5 0 .688.278.125.505-1.25.505s-1.937-.227-1.25-.505z" transform="translate(-23.554 -16.68)"/><path style="fill:#eed522" d="M341.98 104.052c2.336-.814 8.5-1.026 8.5-.293 0 .44-2.137.764-4.75.72-2.612-.043-4.3-.235-3.75-.427zM69.73 19.87c.963-.251 2.538-.251 3.5 0 .963.252.175.458-1.75.458s-2.712-.206-1.75-.458z" transform="translate(-23.554 -16.68)"/><path style="fill:#e0bd45" d="M38.353 91.809c-1.244-1.586-1.209-1.622.377-.378.963.755 1.75 1.542 1.75 1.75 0 .823-.82.293-2.127-1.372zm266.052-17-2.425-2.75 2.75 2.424c2.57 2.266 3.21 3.076 2.425 3.076-.18 0-1.417-1.238-2.75-2.75z" transform="translate(-23.554 -16.68)"/><path style="fill:#e5c636" d="m315.885 92.309-1.905-2.25 2.25 1.905c1.238 1.047 2.25 2.06 2.25 2.25 0 .8-.804.209-2.595-1.905zm-264.952-8-3.953-4.25 4.25 3.953c2.338 2.174 4.25 4.086 4.25 4.25 0 .756-.87-.001-4.547-3.953z" transform="translate(-23.554 -16.68)"/><path style="fill:#f1dc13" d="M111.733 62.059c.01-2.2.216-2.983.455-1.739.239 1.244.23 3.044-.02 4s-.446-.061-.435-2.261zm-26.753-21.5c.996-1.1 2.035-2 2.31-2 .275 0-.314.9-1.31 2-.995 1.1-2.035 2-2.31 2-.274 0 .315-.9 1.31-2z" transform="translate(-23.554 -16.68)"/><path style="fill:#edd31b" d="m335.918 95.309-2.938-3.25 3.25 2.937c3.03 2.737 3.71 3.563 2.938 3.563-.173 0-1.635-1.463-3.25-3.25zM71.559 79.975c.048-1.165.285-1.402.605-.604.288.722.253 1.584-.08 1.917-.332.332-.568-.259-.525-1.313zm0-11c.048-1.165.285-1.402.605-.604.288.722.253 1.584-.08 1.917-.332.332-.568-.259-.525-1.313z" transform="translate(-23.554 -16.68)"/><path style="fill:#e9cc23" d="M60.56 101.975c.047-1.165.284-1.402.604-.604.288.722.253 1.584-.08 1.917-.332.332-.568-.259-.525-1.313zm259.48-5.948c-1.068-.808-1.46-1.468-.873-1.468.588 0 1.629.675 2.313 1.5 1.558 1.876 1.068 1.865-1.44-.032zm4.845-15.718-1.905-2.25 2.25 1.905c2.115 1.79 2.706 2.595 1.905 2.595-.19 0-1.202-1.013-2.25-2.25zM61.48 46.059c1.292-1.375 2.574-2.5 2.85-2.5.274 0-.558 1.125-1.85 2.5-1.291 1.375-2.573 2.5-2.848 2.5-.275 0 .557-1.125 1.848-2.5z" transform="translate(-23.554 -16.68)"/><path style="fill:#f1dc0a" d="M86.564 100.194c.229-.2 1.541-.9 2.916-1.555 2.358-1.123 2.39-1.102.56.364-1.594 1.277-4.849 2.392-3.476 1.191zm12.416-8.635c2.149-2.2 4.131-4 4.406-4 .275 0-1.257 1.8-3.406 4-2.148 2.2-4.13 4-4.405 4-.275 0 1.257-1.8 3.405-4zm-13-51c2.149-2.2 4.131-4 4.406-4 .275 0-1.257 1.8-3.406 4-2.148 2.2-4.13 4-4.405 4-.275 0 1.257-1.8 3.405-4zm13.64-7.034c-1.299-1.081-1.931-1.966-1.405-1.966.525 0 1.77.9 2.765 2 2.287 2.527 1.696 2.512-1.36-.034z" transform="translate(-23.554 -16.68)"/><path style="fill:#dbb546" d="M27.826 56.015c-.326-.848-.37-1.766-.096-2.04.273-.272.736.422 1.03 1.544.623 2.383-.07 2.75-.934.496z" transform="translate(-23.554 -16.68)"/><path style="fill:#f3de02" d="M103.48 61.5c0-15.365.34-22.85 1.017-22.431.559.345.78 1.01.49 1.478-.288.468.043 1.45.736 2.181 1.852 1.954 4.712 10.647 5.392 16.392.37 3.122.017 7.248-.937 10.971-.841 3.282-1.68 6.632-1.863 7.444-.184.812-.897 2.081-1.585 2.821-.687.74-1.25 1.988-1.25 2.774s-.45 1.429-1 1.429c-.637 0-1-8.353-1-23.06z" transform="translate(-23.554 -16.68)"/><path style="fill:#e0bd35" d="M41.353 93.809c-1.244-1.586-1.209-1.622.377-.378.963.755 1.75 1.542 1.75 1.75 0 .823-.82.293-2.127-1.372zm-1.873-61.75c1.292-1.375 2.574-2.5 2.85-2.5.274 0-.558 1.125-1.85 2.5-1.291 1.375-2.573 2.5-2.848 2.5-.275 0 .557-1.125 1.848-2.5z" transform="translate(-23.554 -16.68)"/><path style="fill:#f2dd02" d="m92.716 65.847.264-30.713 2.733-1.533c2.583-1.45 2.866-1.397 5.21.962l2.479 2.496.138 24.864.139 24.865-4.812 4.885c-2.646 2.687-5.172 4.886-5.613 4.886-.442 0-.683-13.82-.538-30.712zm12.795 17.212c0-.55.436-1.675.97-2.5.533-.825.969-1.05.969-.5s-.436 1.675-.97 2.5c-.533.825-.969 1.05-.969.5zm5.048-15.084c.048-1.165.285-1.402.605-.604.288.722.253 1.584-.08 1.917-.332.332-.568-.259-.525-1.313zm-2.455-19.955c-.965-2.515-.68-3.164.499-1.136.583 1.003.85 2.035.593 2.293-.258.257-.749-.263-1.092-1.157zm-3.06-6.168c-.542-1.425-.427-1.54.56-.56.684.678.991 1.485.683 1.793-.308.308-.867-.247-1.242-1.233z" transform="translate(-23.554 -16.68)"/><path style="fill:#edd112" d="m334.31 101.982-4.672-1.438-.346-7.743c-.19-4.258-.256-7.9-.146-8.092.11-.192 1.352 1.923 2.76 4.701 1.407 2.778 4.118 6.295 6.025 7.816 2.406 1.92 3.096 3.006 2.258 3.55-.91.589-.837 1.026.291 1.767 1.334.876 1.334.979 0 .93-.825-.03-3.602-.7-6.17-1.491zM71.752 74.559c0-2.475.195-3.488.433-2.25.239 1.237.239 3.262 0 4.5-.238 1.237-.433.225-.433-2.25zm-7.273-43c0-10.25.134-11 1.956-11 1.819 0 1.926.593 1.548 8.529-.286 5.98-.082 8.328.68 7.857.598-.37.042.742-1.236 2.47-1.278 1.73-2.464 3.144-2.636 3.144-.171 0-.312-4.95-.312-11z" transform="translate(-23.554 -16.68)"/><path style="fill:#f0d904" d="M83.48 72.267V43.975l4.5-4.416 4.5-4.417v62.046l-3.533 1.685c-1.944.927-3.97 1.686-4.5 1.686-.6 0-.967-10.76-.967-28.292z" transform="translate(-23.554 -16.68)"/><path style="fill:#f0d706" d="M78.902 97.385c-1.397-3.098-1.565-4.279-.652-4.583 1.566-.522 1.793-35.243.23-35.243-1.84 0-1.027-4.098 1.75-8.822l2.75-4.678.244 10c.943 38.656.786 47.502-.842 47.5-.907 0-2.41-1.803-3.48-4.174z" transform="translate(-23.554 -16.68)"/><path style="fill:#edd20d" d="M340.51 102.598c-2.788-1.763-.107-2.284 3.678-.715l3.792 1.573-3 .036c-1.65.02-3.661-.383-4.47-.894zM72.845 75.058c.002-5.5.17-7.622.373-4.716.203 2.906.2 7.406-.005 10-.205 2.594-.37.217-.368-5.283zm-4.864-45c.217-4.4.418-8.337.447-8.75.028-.412 1.145-.75 2.482-.75 1.748 0 2.53.632 2.787 2.25.457 2.89-1.729 9.538-4.193 12.75l-1.918 2.5z" transform="translate(-23.554 -16.68)"/><path style="fill:#efd607" d="M77.974 97.546c-1.254-2.425-1.567-6.935-1.605-23.088-.026-11.041.214-20.335.532-20.654.319-.318.58.396.58 1.588 0 1.192.45 2.167 1 2.167 1.58 0 1.333 34.72-.25 35.255-.95.32-.834 1.301.483 4.083 2.082 4.395 1.473 4.928-.74.649z" transform="translate(-23.554 -16.68)"/><path style="fill:#eed409" d="M74.98 90.059c-1.153-2.307-1.375-29.96-.25-31.085 1.577-1.574 1.793.793 1.526 16.693-.198 11.75-.559 15.825-1.276 14.392zm-1.342-67.5c0-1.375.227-1.938.505-1.25.277.687.277 1.812 0 2.5-.278.687-.505.125-.505-1.25z" transform="translate(-23.554 -16.68)"/><path style="fill:#e9ca18" d="M325.983 98.983c-5.753-3-6.1-3.736-6.384-13.589-.252-8.765-.179-9.136 1.558-7.816 6.22 4.727 6.323 4.94 6.323 12.955 0 4.598.477 8.102 1.2 8.826 1.601 1.6.907 1.504-2.697-.376zM58.48 48.181c0-.208.788-.995 1.75-1.75 1.587-1.244 1.622-1.208.378.378-1.306 1.665-2.128 2.195-2.128 1.372z" transform="translate(-23.554 -16.68)"/><path style="fill:#e4c323" d="M50.23 99.987c-3.877-2.104-3.438-2.83.5-.827 3.77 1.917 4.437 2.414 3.167 2.359-.504-.022-2.154-.712-3.667-1.532zm265.506-8.678c-1.415-1.787-3.406-5.75-2.89-5.75.24 0 1.366 1.575 2.502 3.5 2.064 3.497 2.255 4.608.388 2.25zM50.48 85.059c-2.429-2.475-4.19-4.5-3.916-4.5.275 0 2.487 2.025 4.916 4.5 2.43 2.475 4.192 4.5 3.917 4.5-.275 0-2.487-2.025-4.917-4.5zm-2-31.5c.825-.534 1.95-.97 2.5-.97s.325.436-.5.97c-.825.533-1.95.969-2.5.969s-.325-.436.5-.97zm-2-26.45c0-.274 1.35-1.197 3-2.05 1.65-.854 3-1.327 3-1.052 0 .275-1.35 1.198-3 2.052-1.65.853-3 1.326-3 1.05z" transform="translate(-23.554 -16.68)"/><path style="fill:#e9cb13" d="M58.48 101.14c0-.78-.29-2.242-.647-3.25-.441-1.25-.318-1.514.388-.831 1.6 1.546 2.554 5.5 1.327 5.5-.587 0-1.068-.639-1.068-1.419zm269.75-2.158c-.412-.416-.721-4.17-.686-8.34.05-5.994.269-7.07 1.042-5.131 1.11 2.778.797 14.635-.356 13.471zM58.7 34.38l.28-12.18 2.75-.734 2.75-.733v11.356c0 10.603-.147 11.46-2.222 12.914-1.222.856-2.586 1.557-3.03 1.557-.445 0-.683-5.481-.528-12.18z" transform="translate(-23.554 -16.68)"/><path style="fill:#dbb536" d="m37.885 90.309-1.905-2.25 2.25 1.905c2.115 1.79 2.706 2.595 1.905 2.595-.19 0-1.202-1.013-2.25-2.25zm-4.155-33.44c.963-.251 2.538-.251 3.5 0 .963.252.175.458-1.75.458s-2.712-.206-1.75-.458zm.75-18.688c0-.208.788-.995 1.75-1.75 1.587-1.244 1.622-1.208.378.378-1.306 1.665-2.128 2.195-2.128 1.372z" transform="translate(-23.554 -16.68)"/><path style="fill:#e7c815" d="M56.843 101.793c-.762-.491-.883-2.057-.365-4.734.425-2.2.869-3.775.987-3.5.328.765 1.016 9.002.75 8.984-.13-.008-.747-.346-1.372-.75zm-.883-65.24c.059-11.51.59-15.259 1.966-13.882.245.245.522 6.01.616 12.812.134 9.73-.13 12.534-1.238 13.155-1.181.66-1.398-1.294-1.344-12.085z" transform="translate(-23.554 -16.68)"/><path style="fill:#e5c418" d="M53.68 100.359c-.664-.665-1.2-3.857-1.2-7.155 0-5.86.032-5.927 1.968-4.175 1.452 1.314 1.723 2.24 1.033 3.53-.515.96-.807 3.38-.65 5.374.157 1.994.232 3.626.167 3.626-.064 0-.658-.54-1.318-1.2zm264.002-7.913c-1.775-3.332-1.266-17.174.59-16.02.935.58 1.21 3.237 1 9.63-.261 7.91-.426 8.574-1.59 6.39zM52.48 38.086c0-17.854 1.798-18.724 2.196-1.062.228 10.122-.01 13.636-.946 13.994-.961.368-1.25-2.616-1.25-12.932z" transform="translate(-23.554 -16.68)"/><path style="fill:#e6c516" d="M54.68 97.053c0-1.925.405-3.75.9-4.056.495-.306.9 1.019.9 2.944s-.405 3.75-.9 4.056c-.495.306-.9-1.019-.9-2.944zm-.2-60.269c0-7.209.354-13.326.785-13.592.982-.607.915 25-.067 25.983-.395.394-.718-5.182-.718-12.39z" transform="translate(-23.554 -16.68)"/><path style="fill:#e4c21a" d="M51.23 99.478c-1.405-.818-1.75-2.41-1.75-8.092 0-5.996.217-6.893 1.42-5.894.908.753 1.54 3.69 1.75 8.125l.33 6.913c0-.018-.787-.49-1.75-1.052zM314.578 87.41c-1.687-4.84-1.436-12.85.402-12.85 1.209 0 1.5 1.555 1.5 8 0 4.4-.18 8-.402 8-.22 0-.896-1.418-1.5-3.15zM49.48 39.3c0-11.544.227-13.401 1.75-14.354 1.642-1.027 1.732-.203 1.45 13.259-.247 11.728-.567 14.355-1.75 14.355-1.193 0-1.45-2.35-1.45-13.26z" transform="translate(-23.554 -16.68)"/><path style="fill:#959595" d="M280.353 50.809c-1.244-1.586-1.209-1.622.377-.378 1.666 1.306 2.196 2.128 1.373 2.128-.208 0-.995-.788-1.75-1.75z" transform="translate(-23.554 -16.68)"/><path style="fill:#e1be1e" d="M47.73 97.415c-.777-.782-1.25-4.096-1.25-8.77 0-6.782.151-7.364 1.548-5.968 1.174 1.175 1.475 3.287 1.25 8.77-.238 5.783-.547 6.973-1.548 5.968zm264.296-14.106c-2.293-5.51-2.35-9.75-.13-9.75 1.04 0 1.503 1.721 1.75 6.502.184 3.576.199 6.5.033 6.5-.165-.002-.91-1.465-1.653-3.252zM46.702 40.869c.2-9.824.629-13.763 1.528-14.062.96-.318 1.25 2.725 1.25 13.061 0 11.167-.261 13.577-1.528 14.063-1.332.511-1.492-1.157-1.25-13.061z" transform="translate(-23.554 -16.68)"/><path style="fill:#e0bb21" d="M45.604 96.656c-.976-.618-1.413-3.356-1.5-9.4-.093-6.444.165-8.29 1.055-7.55.68.565 1.314 4.544 1.5 9.418l.321 8.422c0-.01-.62-.41-1.376-.89zm263.225-18.149c-1.412-1.412-.464-5.948 1.243-5.948.989 0 1.133.612.527 2.25-.457 1.237-.633 2.812-.392 3.5.537 1.526.024 1.6-1.378.198zM43.98 42.07c0-10.027.329-13.615 1.279-13.98 1.007-.386 1.219 2.403 1 13.157-.373 18.26-2.279 18.948-2.279.823z" transform="translate(-23.554 -16.68)"/><path style="fill:#dfb821" d="M42.085 92.971c-.947-2.468-.708-14.412.288-14.412 1.455 0 2.107 2.794 2.107 9.022 0 5.764-1.208 8.483-2.395 5.39zm264.927-17.706c-.428-.986-.498-2.073-.155-2.416 1.015-1.016 1.834.41 1.367 2.381-.415 1.747-.469 1.749-1.212.035zM41.48 43.765c0-9.52.313-12.22 1.531-13.232 1.364-1.132 1.5.132 1.25 11.546-.2 9.157-.637 12.934-1.53 13.231-.954.317-1.25-2.422-1.25-11.546z" transform="translate(-23.554 -16.68)"/><path style="fill:#929292" d="M132.73 97.817c3.713-.192 9.788-.192 13.5 0 3.713.192.675.35-6.75.35s-10.462-.158-6.75-.35zm-8.8-36.758c.001-19.25.135-26.984.3-17.186.163 9.798.163 25.548-.001 35-.165 9.452-.299 1.436-.298-17.814zm77.363 27.816c.722-.288 1.584-.253 1.917.08.332.332-.259.568-1.313.525-1.165-.048-1.402-.285-.604-.605zm212 0c.722-.288 1.584-.253 1.917.08.332.332-.259.568-1.313.525-1.165-.048-1.402-.285-.604-.605zM141.73 84.83c2.063-.216 5.438-.216 7.5 0 2.063.216.375.392-3.75.392s-5.812-.176-3.75-.392zm-4.9-9.271c0-4.675.172-6.588.383-4.25.21 2.337.21 6.162 0 8.5-.21 2.337-.383.425-.383-4.25zm259.412 5.292c1.244-.239 3.044-.23 4 .02s-.061.446-2.262.435c-2.2-.01-2.982-.215-1.738-.455zm-117-3c1.244-.239 3.044-.23 4 .02s-.061.446-2.262.435c-2.2-.01-2.982-.215-1.738-.455zM205.73 64.842c1.513-.229 3.988-.229 5.5 0 1.513.23.275.417-2.75.417s-4.262-.188-2.75-.417zm220.512-4.99c1.244-.24 3.044-.23 4 .02s-.061.445-2.262.434c-2.2-.01-2.982-.215-1.738-.455zM136.823 45.058c.004-4.4.18-6.076.391-3.724.211 2.352.208 5.952-.007 8s-.388.124-.384-4.276zm4.407-9.224c1.788-.222 4.713-.222 6.5 0 1.788.222.325.404-3.25.404s-5.037-.182-3.25-.404zm-9-12.017c3.438-.195 9.063-.195 12.5 0 3.438.195.625.355-6.25.355s-9.687-.16-6.25-.355z" transform="translate(-23.554 -16.68)"/><path style="fill:#dcb524" d="M40.68 92.359c-1.67-1.671-1.626-14.8.05-14.8.896 0 1.25 2.266 1.25 8 0 4.4-.022 8-.05 8-.027 0-.59-.54-1.25-1.2zm264.36-18.706c-.302-.486.189-1.168 1.09-1.513 2.155-.827 2.468-.376.802 1.159-.74.682-1.592.841-1.893.354zM39.48 44.713c0-11.06.15-11.969 2.25-13.723 1.238-1.033 1.688-1.238 1-.455-.855.974-1.25 5.31-1.25 13.724 0 7.533-.387 12.3-1 12.3-.61 0-1-4.615-1-11.845z" transform="translate(-23.554 -16.68)"/><path style="fill:#d6aa34" d="M30.641 78.012c-2.123-4.66-1.356-6.518 1.84-4.453 1.181.763 1.208.972.124.984-.992.011-1.208.85-.775 3.016.735 3.67.345 3.819-1.189.453zm-1.84-22.062c-.489-1.272 2.185-12.39 2.98-12.392.11 0 .2 3.148.2 6.997 0 5.022-.362 7-1.282 7.001-.705.002-1.559-.721-1.898-1.606z" transform="translate(-23.554 -16.68)"/><path style="fill:#d9b129" d="M37.68 89.359c-1.296-1.297-1.704-13.8-.45-13.802.413-.001.597 2.716.41 6.038-.212 3.744.12 6.596.872 7.502 1.46 1.759.856 1.95-.832.262zm-1.016-42.36c-.144-7.864.16-10.481 1.39-12 .866-1.067 1.204-1.265.75-.44-.453.825-1.079 6.225-1.39 12l-.567 10.5z" transform="translate(-23.554 -16.68)"/><path style="fill:#dab226" d="M38.147 88.892c-1.072-1.072-.767-12.333.333-12.333.565 0 1 2.833 1 6.5 0 6.546-.115 7.05-1.333 5.833zm-.651-42.083c.008-5.363.451-10.425.984-11.25.658-1.018.975 2.117.985 9.75.01 6.843-.376 11.25-.985 11.25-.599 0-.993-3.907-.984-9.75z" transform="translate(-23.554 -16.68)"/><path style="fill:#d8ae2a" d="M35.147 85.892c-1.069-1.07-.767-11.333.333-11.333.556 0 1 2.666 1 6 0 6.053-.122 6.544-1.333 5.333zm-.651-37.583c.008-4.538.451-8.925.984-9.75.663-1.026.975 1.585.985 8.25.01 5.843-.385 9.75-.985 9.75-.587 0-.993-3.407-.984-8.25z" transform="translate(-23.554 -16.68)"/><path style="fill:#d6ab2d" d="M32.578 80.41c-1.489-4.272-1.38-5.851.402-5.851 1.112 0 1.5 1.166 1.5 4.5 0 2.475-.18 4.5-.402 4.5-.22 0-.896-1.418-1.5-3.15zm-1.052-29.101c.024-2.888.663-6.6 1.418-8.25 1.302-2.842 1.378-2.565 1.455 5.25.066 6.702-.2 8.25-1.419 8.25-1.148 0-1.489-1.23-1.454-5.25z" transform="translate(-23.554 -16.68)"/><path style="fill:#8b8b8b" d="M200.293 98.875c.722-.288 1.584-.253 1.917.08.332.332-.259.568-1.313.525-1.165-.048-1.402-.285-.604-.605zM241.98 51.56c.996-1.1 2.035-2 2.31-2 .275 0-.314.9-1.31 2-.995 1.1-2.034 2-2.31 2-.274 0 .315-.9 1.31-2z" transform="translate(-23.554 -16.68)"/><path style="fill:#818181" d="M261.293 98.875c.722-.288 1.584-.253 1.917.08.332.332-.259.568-1.313.525-1.165-.048-1.402-.285-.604-.605zm97.937.021c.688-.277 1.813-.277 2.5 0 .688.278.125.505-1.25.505s-1.937-.227-1.25-.505z" transform="translate(-23.554 -16.68)"/><path style="fill:#858277" d="M292.94 69.492c-.363-.587-.445-1.281-.183-1.543s.743.218 1.069 1.066c.676 1.763.1 2.073-.887.477z" transform="translate(-23.554 -16.68)"/><path style="fill:#7c7c7c" d="M227.88 81.059c.001-8.25.157-11.492.345-7.205.188 4.288.186 11.038-.003 15-.19 3.963-.343.455-.342-7.795zm-51.242-4.5c0-1.375.227-1.938.505-1.25.277.687.277 1.812 0 2.5-.278.687-.505.125-.505-1.25zm175.17-7.5c.005-3.85.186-5.303.402-3.228.217 2.075.213 5.225-.008 7-.22 1.775-.398.078-.393-3.772zm24.07-7.5c0-7.975.155-11.238.345-7.25.19 3.987.19 10.512 0 14.5-.19 3.987-.345.725-.345-7.25zm-96.636 2.292c1.244-.239 3.044-.23 4 .02s-.061.446-2.262.435c-2.2-.01-2.982-.215-1.738-.455zM141.23 54.835c1.788-.222 4.713-.222 6.5 0 1.788.222.325.404-3.25.404s-5.037-.182-3.25-.404zm120.063.04c.722-.288 1.584-.253 1.917.08.332.332-.259.568-1.313.525-1.165-.048-1.402-.285-.604-.605zm135.187-4.694c0-.208.788-.995 1.75-1.75 1.587-1.244 1.622-1.208.378.378-1.306 1.665-2.128 2.195-2.128 1.372z" transform="translate(-23.554 -16.68)"/><path style="fill:#b69527" d="M301.242 70.851c1.244-.239 3.044-.23 4 .02s-.061.446-2.262.435c-2.2-.01-2.982-.215-1.738-.455z" transform="translate(-23.554 -16.68)"/><path style="fill:#6b6b6b" d="M387.914 71.059c0-13.75.14-19.514.313-12.809.173 6.706.173 17.956.001 25-.172 7.045-.313 1.559-.314-12.191zM181.559 82.975c.048-1.165.285-1.402.605-.604.288.722.253 1.584-.08 1.917-.332.332-.568-.259-.525-1.313zm253.08-1.416c0-1.375.226-1.938.504-1.25.277.687.277 1.812 0 2.5-.278.687-.505.125-.505-1.25zm-94.759-18.5c.001-8.25.157-11.492.345-7.205.188 4.288.186 11.038-.003 15-.19 3.963-.343.455-.342-7.795zM206.744 73.84c1.52-.23 3.77-.224 5 .014 1.23.237-.013.425-2.764.418-2.75-.008-3.756-.202-2.236-.432zm145.08-19.782c.003-4.4.179-6.076.39-3.724.211 2.352.208 5.952-.007 8s-.388.124-.384-4.276zm-7.594-9.206c1.238-.239 3.263-.239 4.5 0 1.238.238.225.433-2.25.433s-3.487-.195-2.25-.433zm36 0c1.238-.239 3.263-.239 4.5 0 1.238.238.225.433-2.25.433s-3.487-.195-2.25-.433zm-64.486-1.012c1.52-.23 3.77-.224 5 .014 1.23.237-.014.425-2.764.418-2.75-.008-3.756-.202-2.236-.432z" transform="translate(-23.554 -16.68)"/><path style="fill:#636363" d="M169.48 92.181c0-.208.788-.995 1.75-1.75 1.587-1.244 1.622-1.208.378.378-1.306 1.665-2.128 2.195-2.128 1.372zm72.873-1.372c-1.244-1.586-1.209-1.622.377-.378 1.666 1.306 2.196 2.128 1.373 2.128-.208 0-.995-.788-1.75-1.75zm-7.715-19.25c0-1.375.227-1.938.505-1.25.277.687.277 1.812 0 2.5-.278.687-.505.125-.505-1.25zM159.56 44.975c.048-1.165.285-1.402.605-.604.288.722.253 1.584-.08 1.917-.332.332-.568-.259-.525-1.313z" transform="translate(-23.554 -16.68)"/><path style="fill:#5a5a5a" d="M220.242 96.851c1.244-.239 3.044-.23 4 .02s-.062.446-2.262.435c-2.2-.01-2.982-.215-1.738-.455zm159.988.002c1.238-.239 3.263-.239 4.5 0 1.238.238.225.433-2.25.433s-3.487-.195-2.25-.433zm-237.982-32.02c1.798-.222 4.498-.217 6 .011 1.503.228.032.41-3.268.405-3.3-.006-4.529-.193-2.732-.415zm43.982-2.98c1.238-.239 3.263-.239 4.5 0 1.238.238.225.433-2.25.433s-3.487-.195-2.25-.433zm207.445-1.794c.02-1.65.245-2.204.498-1.231.254.973.237 2.323-.037 3-.274.677-.481-.12-.46-1.77zm-221.963-16.5c0-1.925.206-2.713.458-1.75.251.962.251 2.537 0 3.5-.252.962-.458.175-.458-1.75zm32.581.316c.722-.288 1.584-.253 1.917.08.332.332-.259.568-1.313.525-1.165-.048-1.402-.285-.604-.605zm207.437-.006c.963-.251 2.538-.251 3.5 0 .963.252.175.458-1.75.458s-2.712-.206-1.75-.458z" transform="translate(-23.554 -16.68)"/><path style="fill:#7d651a" d="M300.75 69.866c.972-.254 2.322-.237 3 .037.677.274-.12.481-1.77.46-1.65-.02-2.203-.244-1.23-.497z" transform="translate(-23.554 -16.68)"/><path style="fill:#535353" d="M161.56 74.975c.047-1.165.284-1.402.604-.604.288.722.253 1.584-.08 1.917-.332.332-.568-.259-.525-1.313zm84.078-3.416c0-1.375.227-1.938.505-1.25.277.687.277 1.812 0 2.5-.278.687-.505.125-.505-1.25zm-41.345-18.684c.722-.288 1.584-.253 1.917.08.332.332-.259.568-1.313.525-1.165-.048-1.402-.285-.604-.605zm37.187.306c0-.208.788-.995 1.75-1.75 1.587-1.244 1.622-1.208.378.378-1.306 1.665-2.128 2.195-2.128 1.372zm-75.127-22.372c-1.244-1.586-1.209-1.622.377-.378 1.666 1.306 2.196 2.128 1.373 2.128-.208 0-.995-.788-1.75-1.75z" transform="translate(-23.554 -16.68)"/><path style="fill:#494949" d="M132.687 96.818c3.688-.192 9.988-.193 14-.003 4.011.19.993.347-6.707.35-7.7 0-10.982-.155-7.293-.347zm-7.756-35.76c0-19.25.134-26.983.298-17.185.164 9.798.164 25.548 0 35-.165 9.452-.299 1.436-.298-17.814zm17.3 24.777c1.787-.222 4.712-.222 6.5 0 1.787.222.324.404-3.25.404-3.576 0-5.038-.182-3.25-.404zm-6.408-10.776c.004-4.4.18-6.076.391-3.724.211 2.352.208 5.952-.007 8s-.388.124-.384-4.276zm260.407 6.794c1.238-.239 3.263-.239 4.5 0 1.238.238.225.433-2.25.433s-3.487-.195-2.25-.433zm-118-3c1.238-.239 3.263-.239 4.5 0 1.238.238.225.433-2.25.433s-3.487-.195-2.25-.433zm-72.982-13.02c1.798-.222 4.498-.217 6 .011 1.503.228.032.41-3.268.405-3.3-.006-4.529-.193-2.732-.415zm220.982-6.98c1.238-.239 3.263-.239 4.5 0 1.238.238.225.433-2.25.433s-3.487-.195-2.25-.433zM135.817 45.559c0-4.125.176-5.813.392-3.75.216 2.062.216 5.437 0 7.5-.216 2.062-.392.375-.392-3.75zm5.913-10.717c1.513-.229 3.988-.229 5.5 0 1.513.23.275.417-2.75.417s-4.262-.188-2.75-.417zm-9-10.025c3.713-.192 9.788-.192 13.5 0 3.713.192.675.35-6.75.35s-10.462-.158-6.75-.35z" transform="translate(-23.554 -16.68)"/><path style="fill:#454545" d="M412.293 51.875c.722-.288 1.584-.253 1.917.08.332.332-.259.568-1.313.525-1.165-.048-1.402-.285-.604-.605z" transform="translate(-23.554 -16.68)"/><path style="fill:#393939" d="M360.293 97.875c.722-.288 1.584-.253 1.917.08.332.332-.259.568-1.313.525-1.165-.048-1.402-.285-.604-.605zM226.885 80.06c.001-8.8.155-12.267.34-7.703.186 4.564.185 11.764-.002 16-.187 4.236-.339.503-.337-8.297zm-51.173-3.5c0-1.925.206-2.713.458-1.75.251.962.251 2.537 0 3.5-.252.962-.458.175-.458-1.75zm175.068-7c0-3.025.188-4.263.417-2.75.229 1.512.229 3.987 0 5.5-.23 1.512-.417.275-.417-2.75zm26.095-8.5c.002-7.7.159-10.718.349-6.707.19 4.012.189 10.312-.003 14-.192 3.689-.348.407-.346-7.293zm-98.645 1.794c1.238-.239 3.263-.239 4.5 0 1.238.238.225.433-2.25.433s-3.487-.195-2.25-.433zm-136.5-7.01c1.513-.23 3.988-.23 5.5 0 1.513.228.275.416-2.75.416s-4.262-.188-2.75-.417z" transform="translate(-23.554 -16.68)"/><path style="fill:#3d320d" d="M299.242 68.851c1.244-.239 3.044-.23 4 .02s-.061.446-2.262.435c-2.2-.01-2.982-.215-1.738-.455z" transform="translate(-23.554 -16.68)"/><path style="fill:#292929" d="M386.913 71.559c0-13.475.141-18.988.314-12.25.173 6.737.173 17.762 0 24.5-.173 6.737-.314 1.225-.314-12.25zM182.559 82.975c.048-1.165.285-1.402.605-.604.288.722.253 1.584-.08 1.917-.332.332-.568-.259-.525-1.313zm251.08-1.416c0-1.375.226-1.938.504-1.25.277.687.277 1.812 0 2.5-.278.687-.505.125-.505-1.25zm-92.761-19c0-7.975.155-11.238.345-7.25.19 3.987.19 10.512 0 14.5-.19 3.987-.345.725-.345-7.25zM206.73 72.842c1.513-.229 3.988-.229 5.5 0 1.513.23.275.417-2.75.417s-4.262-.188-2.75-.417zM350.817 54.56c0-4.125.176-5.813.392-3.75.216 2.062.216 5.437 0 7.5-.216 2.062-.392.375-.392-3.75zm-6.575-8.708c1.244-.239 3.044-.23 4 .02s-.061.446-2.262.435c-2.2-.01-2.982-.215-1.738-.455zm36 0c1.244-.239 3.044-.23 4 .02s-.061.446-2.262.435c-2.2-.01-2.982-.215-1.738-.455zm-65.012-.998c1.238-.239 3.263-.239 4.5 0 1.238.238.225.433-2.25.433s-3.487-.195-2.25-.433z" transform="translate(-23.554 -16.68)"/><path style="fill:#252525" d="M242.98 52.559c.996-1.1 2.035-2 2.31-2 .275 0-.314.9-1.31 2-.995 1.1-2.034 2-2.31 2-.274 0 .315-.9 1.31-2z" transform="translate(-23.554 -16.68)"/><path style="fill:#212121" d="M261.293 44.875c.722-.288 1.584-.253 1.917.08.332.332-.259.568-1.313.525-1.165-.048-1.402-.285-.604-.605z" transform="translate(-23.554 -16.68)"/><path style="fill:#191919" d="M220.242 95.851c1.244-.239 3.044-.23 4 .02s-.062.446-2.262.435c-2.2-.01-2.982-.215-1.738-.455zm160 0c1.244-.239 3.044-.23 4 .02s-.061.446-2.262.435c-2.2-.01-2.982-.215-1.738-.455zM260.75 88.866c.972-.254 2.322-.237 3 .037.677.274-.12.481-1.77.46-1.65-.02-2.203-.244-1.23-.497zm-11.397-5.057c-1.244-1.586-1.209-1.622.377-.378 1.666 1.306 2.196 2.128 1.373 2.128-.208 0-.995-.788-1.75-1.75zm-86.794-8.834c.048-1.165.285-1.402.605-.604.288.722.253 1.584-.08 1.917-.332.332-.568-.259-.525-1.313zm82.08-3.416c0-1.375.226-1.938.504-1.25.277.687.277 1.812 0 2.5-.278.687-.505.125-.505-1.25zM141.73 63.83c2.063-.216 5.438-.216 7.5 0 2.063.216.375.392-3.75.392s-5.812-.176-3.75-.392zm42.394-3.04c-.262-.422 1.287-.6 3.44-.395 2.154.206 3.916.551 3.916.769 0 .744-6.881.395-7.356-.374zm-27.644-6.609c0-.208.788-.995 1.75-1.75 1.587-1.244 1.622-1.208.378.378-1.306 1.665-2.128 2.195-2.128 1.372zm47.813-2.306c.722-.288 1.584-.253 1.917.08.332.332-.259.568-1.313.525-1.165-.048-1.402-.285-.604-.605zm208-7c.722-.288 1.584-.253 1.917.08.332.332-.259.568-1.313.525-1.165-.048-1.402-.285-.604-.605zm-241.734-1.9c.048-1.165.285-1.402.605-.604.288.722.253 1.584-.08 1.917-.332.332-.568-.259-.525-1.313z" transform="translate(-23.554 -16.68)"/><path style="fill:#141414" d="M125.935 95.302c-.265-.691-.363-16.554-.218-35.25l.263-33.993 13.5-.047 13.5-.047-13.25.326-13.25.326V95.502l13.75.309 13.75.309-13.78.22c-10.308.163-13.904-.098-14.265-1.038zm15.795-8.472c2.063-.216 5.438-.216 7.5 0 2.063.216.375.392-3.75.392s-5.812-.176-3.75-.392zm-6.9-11.271c0-4.675.172-6.588.383-4.25.21 2.337.21 6.162 0 8.5-.21 2.337-.383.425-.383-4.25zm56.73 6.416c.047-1.165.284-1.402.604-.604.288.722.253 1.584-.08 1.917-.332.332-.568-.259-.525-1.313zm205.17.894c.963-.251 2.538-.251 3.5 0 .963.252.175.458-1.75.458s-2.712-.206-1.75-.458zm-116.25-2.31-4.5-.7 4.191-.15c2.306-.083 4.47.3 4.81.85.34.55.478.932.308.85-.17-.083-2.334-.466-4.809-.85zm-75.232-13.725c1.798-.223 4.498-.218 6 .01 1.503.228.032.41-3.268.405-3.3-.006-4.529-.193-2.732-.415zm220.994-8.983c1.244-.239 3.044-.23 4 .02s-.061.446-2.262.435c-2.2-.01-2.982-.215-1.738-.455zM134.83 45.56c0-4.675.172-6.588.383-4.25.21 2.337.21 6.162 0 8.5-.21 2.337-.383.425-.383-4.25zm85.523 5.25c-1.244-1.586-1.209-1.622.377-.378 1.666 1.306 2.196 2.128 1.373 2.128-.208 0-.995-.788-1.75-1.75zM141.23 33.835c1.788-.222 4.713-.222 6.5 0 1.788.222.325.404-3.25.404s-5.037-.182-3.25-.404z" transform="translate(-23.554 -16.68)"/><path style="fill:#111" d="M200.293 96.875c.722-.288 1.584-.253 1.917.08.332.332-.259.568-1.313.525-1.165-.048-1.402-.285-.604-.605z" transform="translate(-23.554 -16.68)"/><path style="fill:#0d0d0d" d="M261.293 96.875c.722-.288 1.584-.253 1.917.08.332.332-.259.568-1.313.525-1.165-.048-1.402-.285-.604-.605zm97.937.021c.688-.277 1.813-.277 2.5 0 .688.278.125.505-1.25.505s-1.937-.227-1.25-.505zm54.063-.02c.722-.29 1.584-.254 1.917.078.332.333-.259.57-1.313.526-1.165-.048-1.402-.285-.604-.605zM225.885 80.058c.001-8.8.155-12.267.34-7.703.186 4.564.185 11.764-.002 16-.187 4.236-.339.503-.337-8.297zm-51.173-3.5c0-1.925.206-2.713.458-1.75.251.962.251 2.537 0 3.5-.252.962-.458.175-.458-1.75zm203.166-15c0-7.975.155-11.238.345-7.25.19 3.987.19 10.512 0 14.5-.19 3.987-.345.725-.345-7.25zm-28.088 7.5c.006-3.3.193-4.53.415-2.733.223 1.798.218 4.498-.01 6-.228 1.503-.41.033-.405-3.267zm-71.56-7.206c1.238-.239 3.263-.239 4.5 0 1.238.238.225.433-2.25.433s-3.487-.195-2.25-.433zm-113.67-3.878c.047-1.165.284-1.402.604-.604.288.722.253 1.584-.08 1.917-.332.332-.568-.259-.525-1.313zm83.92 1.206c0-.208.788-.995 1.75-1.75 1.587-1.244 1.622-1.208.378.378-1.306 1.665-2.128 2.195-2.128 1.372zm-107.25-2.346c1.788-.222 4.713-.222 6.5 0 1.788.222.325.404-3.25.404s-5.037-.182-3.25-.404zm72.123-2.026c-1.244-1.586-1.209-1.622.377-.378 1.666 1.306 2.196 2.128 1.373 2.128-.208 0-.995-.788-1.75-1.75zm-55.468-17.5-1.905-2.25 2.25 1.905c2.115 1.79 2.706 2.595 1.905 2.595-.19 0-1.202-1.013-2.25-2.25z" transform="translate(-23.554 -16.68)"/><path style="fill:#110e04" d="M297.73 67.842c1.513-.229 3.988-.229 5.5 0 1.513.23.275.417-2.75.417s-4.262-.188-2.75-.417z" transform="translate(-23.554 -16.68)"/><path style="fill:#090909" d="M347.353 91.809c-1.244-1.586-1.209-1.622.377-.378.963.755 1.75 1.542 1.75 1.75 0 .823-.82.293-2.127-1.372zM211.48 88.18c0-.208.788-.995 1.75-1.75 1.587-1.244 1.622-1.208.378.378-1.306 1.665-2.128 2.195-2.128 1.372zm6.08-12.206c.047-1.165.284-1.402.604-.604.288.722.253 1.584-.08 1.917-.332.332-.568-.259-.525-1.313z" transform="translate(-23.554 -16.68)"/><path style="fill:#050505" d="m385.711 71.869-.23-24.19-3.75-.392-3.75-.392 3.78-.168c2.272-.101 3.977.34 4.27 1.102.268.7.358 11.837.2 24.75l-.29 23.48zm-198.826 19.44-1.905-2.25 2.25 1.905c2.115 1.79 2.706 2.595 1.905 2.595-.19 0-1.202-1.013-2.25-2.25zm212 0-1.905-2.25 2.25 1.905c1.238 1.047 2.25 2.06 2.25 2.25 0 .8-.804.209-2.595-1.905zm29.595-.25c1.292-1.375 2.574-2.5 2.85-2.5.274 0-.558 1.125-1.85 2.5-1.291 1.375-2.573 2.5-2.848 2.5-.275 0 .557-1.125 1.848-2.5zm-212.5.5c-1.63-.701-1.687-.873-.309-.93.93-.039 1.97.38 2.31.93.71 1.15.675 1.15-2 0zm27.938-2.25-2.938-3.25 3.25 2.937c3.03 2.737 3.71 3.563 2.938 3.563-.173 0-1.635-1.463-3.25-3.25zm132.062 2.25c-1.63-.701-1.687-.873-.309-.93.93-.039 1.97.38 2.31.93.71 1.15.675 1.15-2 0zm-207-2c.996-1.1 2.035-2 2.31-2 .275 0-.314.9-1.31 2-.995 1.1-2.035 2-2.31 2-.275 0 .315-.9 1.31-2zm110 0c.996-1.1 2.035-2 2.31-2 .275 0-.314.9-1.31 2-.995 1.1-2.035 2-2.31 2-.275 0 .315-.9 1.31-2zm125.425-1.75-2.425-2.75 2.75 2.424c1.513 1.333 2.75 2.57 2.75 2.75 0 .784-.81.146-3.075-2.424zm-51-2-2.425-2.75 2.75 2.424c1.513 1.333 2.75 2.57 2.75 2.75 0 .784-.81.146-3.075-2.424zm-104.487-1.5-2.938-3.25 3.25 2.937c3.03 2.737 3.71 3.563 2.938 3.563-.173 0-1.635-1.463-3.25-3.25zm-89.438-.25c1.292-1.375 2.574-2.5 2.85-2.5.274 0-.558 1.125-1.85 2.5-1.291 1.375-2.573 2.5-2.848 2.5-.275 0 .557-1.125 1.848-2.5zm24.08-1.084c.047-1.165.284-1.402.604-.604.288.722.253 1.584-.08 1.917-.332.332-.568-.259-.525-1.313zm249.078-1.416c0-1.375.227-1.938.505-1.25.277.687.277 1.812 0 2.5-.278.687-.505.125-.505-1.25zm-9.753-4.25-1.905-2.25 2.25 1.905c2.115 1.79 2.706 2.595 1.905 2.595-.19 0-1.202-1.013-2.25-2.25zm-81.007-14.75c0-7.975.155-11.238.345-7.25.19 3.987.19 10.512 0 14.5-.19 3.987-.345.725-.345-7.25zm-105.166 9c0-1.925.206-2.713.458-1.75.251.962.251 2.537 0 3.5-.252.962-.458.175-.458-1.75zm-30.504.278c1.775-.221 4.925-.225 7-.008 2.075.216.622.397-3.228.401-3.85.005-5.547-.172-3.772-.393zm-36.803-8.028-2.425-2.75 2.75 2.424c2.57 2.266 3.21 3.076 2.425 3.076-.18 0-1.417-1.238-2.75-2.75zm48.154.166c.048-1.165.285-1.402.605-.604.288.722.253 1.584-.08 1.917-.332.332-.568-.259-.525-1.313zm132.114-9.106-.193-7.19-3.75-.392-3.75-.392 3.782-.168c4.577-.204 4.935.514 4.463 8.937l-.36 6.395zM134.988 56.57c-.35-.567.05-.734.94-.393 1.733.665 2.05 1.382.611 1.382-.517 0-1.215-.445-1.551-.989zm22.492-2.511c1.292-1.375 2.574-2.5 2.85-2.5.274 0-.558 1.125-1.85 2.5-1.291 1.375-2.573 2.5-2.848 2.5-.275 0 .557-1.125 1.848-2.5zm7 2.122c0-.208.788-.995 1.75-1.75 1.587-1.244 1.622-1.208.378.378-1.306 1.665-2.128 2.195-2.128 1.372zm113.947-3.372-3.447-3.75 3.75 3.446c2.063 1.895 3.75 3.583 3.75 3.75 0 .763-.846.044-4.053-3.446zm142.926 1c-1.244-1.586-1.209-1.622.377-.378 1.666 1.306 2.196 2.128 1.373 2.128-.208 0-.995-.788-1.75-1.75zm-17.873.372c0-.208.788-.995 1.75-1.75 1.587-1.244 1.622-1.208.378.378-1.306 1.665-2.128 2.195-2.128 1.372zm-214.5-2.622c.996-1.1 2.035-2 2.31-2 .275 0-.314.9-1.31 2-.995 1.1-2.034 2-2.31 2-.274 0 .315-.9 1.31-2zm30.905-.25-1.905-2.25 2.25 1.905c2.115 1.79 2.706 2.595 1.905 2.595-.19 0-1.202-1.013-2.25-2.25zm208 0-1.905-2.25 2.25 1.905c1.238 1.047 2.25 2.06 2.25 2.25 0 .8-.804.209-2.595-1.905zM161.56 44.975c.048-1.165.285-1.402.605-.604.288.722.253 1.584-.08 1.917-.332.332-.568-.259-.525-1.313zm97.734.9c.722-.288 1.584-.253 1.917.08.332.332-.259.568-1.313.525-1.165-.048-1.402-.285-.604-.605zm4 0c.722-.288 1.584-.253 1.917.08.332.332-.259.568-1.313.525-1.165-.048-1.402-.285-.604-.605zm51.95-.024c1.243-.239 3.043-.23 4 .02.955.25-.062.446-2.263.435-2.2-.01-2.982-.215-1.738-.455z" transform="translate(-23.554 -16.68)"/><path style="fill:#000" d="M193.832 95.466c-1.732-.502-4.544-2.502-6.25-4.444-2.553-2.908-3.102-4.387-3.102-8.363 0-9.625 6.97-14.245 22.5-14.91 5.852-.252 10.316-.899 10.76-1.56.418-.622.515-2.255.216-3.63-1.781-8.181-5.119-11-13.022-11-5.529 0-10.013 2.382-11.713 6.224-1.026 2.319-1.843 2.776-4.96 2.776-3.656 0-3.71-.056-2.69-2.75 4.31-11.377 23.326-15.66 33.081-7.453 5.87 4.94 6.782 8.683 6.807 27.953l.022 17.25h-3.5c-2.852 0-3.5-.377-3.5-2.032 0-3.291-2.44-3.302-8.228-.036-5.674 3.203-10.273 3.756-16.42 1.975zm15.579-5.372c6.353-3.285 11.106-13.376 8.04-17.07-2.826-3.407-20.624-.992-23.962 3.25-2.276 2.895-2.684 9.056-.759 11.47 3.14 3.935 11.373 5.095 16.681 2.35zm42.562 4.113c-5.455-2.54-10.952-8.111-13.118-13.294-1.83-4.38-1.747-14.528.156-19.083 4.096-9.801 12.417-15.396 22.898-15.396 4.023 0 7.672.626 9.75 1.674 4.207 2.121 9.566 7.137 11.432 10.7l1.44 2.75h-3.555c-2.81 0-4.2-.731-6.617-3.485-7.673-8.739-22.786-6.534-27.92 4.073-1.749 3.611-2.103 5.798-1.775 10.952.454 7.13 2.276 10.447 7.806 14.21 6.526 4.442 19.095 2.302 22.741-3.87 1.4-2.37 2.374-2.88 5.505-2.88h3.805l-1.923 3.75c-5.542 10.808-19.197 15.221-30.625 9.9zm100.255.339c-2.064-1.12-4.989-3.904-6.5-6.185-2.71-4.092-2.752-4.398-3.06-22.475l-.311-18.327h6.955l.334 16.797c.36 18.118.93 20.254 6.349 23.804 3.396 2.225 11.468 2.113 15.407-.214 5.784-3.417 7.078-8.024 7.078-25.203V47.559h7v48h-3.5c-2.85 0-3.5-.377-3.5-2.032 0-3.264-2.734-3.41-7.274-.39-5.628 3.743-13.59 4.334-18.978 1.409zm52.711.133c-4.243-1.927-9.459-7.275-9.459-9.697 0-.96 1.14-1.423 3.5-1.423 2.24 0 3.5.477 3.5 1.325 0 2.611 4.807 5.898 9.379 6.414 8.825.994 13.621-2.028 13.621-8.584 0-5.242-1.857-6.62-12.897-9.575-10.716-2.868-13.428-4.376-15.67-8.711-2.92-5.648.15-13.019 6.906-16.573 4.218-2.22 15.088-2.228 19.292-.016 3.19 1.678 8.37 7.123 8.37 8.796 0 .508-1.56.924-3.465.924-2.436 0-3.782-.592-4.53-1.99-1.81-3.382-6.768-5.288-12.358-4.75-5.586.536-8.648 3.162-8.648 7.416 0 5.574 1.042 6.19 18.398 10.874 8.308 2.242 11.602 5.733 11.602 12.296 0 3.977-.554 5.659-2.708 8.22-3.577 4.25-9.627 6.89-15.792 6.89-2.75 0-6.818-.826-9.04-1.836zM126.48 60.969v-34.59l15.25.34c14.058.313 15.602.535 19.75 2.84 8.802 4.89 11.49 16.698 5.44 23.89-3.242 3.852-3.076 6.263.62 8.996 4.762 3.52 6.932 7.873 6.937 13.913.004 6.237-1.612 9.777-6.367 13.952-4.66 4.092-10.758 5.249-27.679 5.249h-13.95zm34.085 22.824c5.073-5.683 3.466-16.521-2.838-19.132-1.727-.716-6.761-1.066-12.797-.891l-9.95.289-.287 10.432c-.157 5.738-.044 11.065.253 11.838.43 1.12 2.792 1.338 11.621 1.068 11.082-.338 11.082-.338 13.998-3.604zm-5.18-27.5c5.711-2.935 8.27-11.302 5.207-17.027-2.401-4.485-6.574-5.873-16.612-5.522l-9 .315-.287 10.432c-.157 5.738-.059 11.025.22 11.75.669 1.746 17.095 1.788 20.471.053zm148.897 1.016c7.682-9.917 8.08-10.26 12.238-10.566l4.298-.316-2.498 3.316a3050.9 3050.9 0 0 0-7.893 10.566c-5.253 7.06-5.509 7.25-9.74 7.25h-4.345z" transform="translate(-23.554 -16.68)"/></svg>