<svg width="180" height="60" viewBox="0 0 206.238 27.819" xmlns="http://www.w3.org/2000/svg"><path d="M9.963 28.876V8.126H1.747v-6h23.96v6h-8.178v20.75zm18.571 0V2.126h12.228q3.668 0 6.305 1.186 2.675 1.184 4.127 3.439 1.452 2.216 1.452 5.273 0 3.019-1.452 5.235-1.452 2.178-4.127 3.363-2.637 1.146-6.305 1.146h-8.025l3.363-3.172v10.28zm16.546 0L38.43 19.13h8.063l6.687 9.745zm-8.98-9.477-3.363-3.477h7.566q2.37 0 3.516-1.032 1.185-1.032 1.185-2.866 0-1.872-1.185-2.904-1.146-1.032-3.516-1.032h-7.566L36.1 4.611zM70.3 29.41q-3.21 0-5.923-1.032t-4.738-2.904q-1.987-1.91-3.095-4.433-1.109-2.522-1.109-5.54 0-3.02 1.109-5.542 1.108-2.522 3.095-4.394 2.025-1.91 4.738-2.942Q67.09 1.592 70.3 1.592q3.248 0 5.923 1.032 2.713 1.031 4.7 2.942 1.987 1.872 3.095 4.394 1.147 2.522 1.147 5.541 0 3.019-1.147 5.58-1.108 2.521-3.095 4.394-1.987 1.872-4.7 2.904-2.675 1.032-5.923 1.032zm0-6.267q1.529 0 2.828-.535 1.337-.535 2.293-1.529.993-1.031 1.528-2.445.573-1.414.573-3.134 0-1.758-.573-3.133-.535-1.414-1.528-2.408-.956-1.031-2.293-1.566-1.3-.535-2.828-.535-1.528 0-2.866.535-1.299.535-2.293 1.566-.955.994-1.528 2.408-.535 1.375-.535 3.133 0 1.72.535 3.134.573 1.414 1.528 2.445.994.994 2.293 1.529 1.338.535 2.866.535zm18.839 5.732V2.126h12.228q3.668 0 6.305 1.186 2.675 1.184 4.127 3.439 1.452 2.216 1.452 5.273 0 3.019-1.452 5.235t-4.127 3.44q-2.637 1.184-6.305 1.184h-8.025l3.363-3.287v10.28zm7.566-9.477-3.363-3.477h7.566q2.37 0 3.516-1.032 1.184-1.032 1.184-2.866 0-1.872-1.184-2.904-1.147-1.032-3.516-1.032h-7.566l3.363-3.477zm20.214 9.477V2.126h7.566v26.75zm26.29.535q-3.171 0-5.884-.994-2.675-1.032-4.662-2.904-1.949-1.872-3.057-4.395-1.108-2.56-1.108-5.617t1.108-5.579q1.108-2.56 3.057-4.432 1.987-1.873 4.662-2.866 2.713-1.032 5.884-1.032 3.707 0 6.611 1.3 2.943 1.298 4.891 3.744l-4.814 4.356q-1.3-1.528-2.866-2.33-1.529-.803-3.44-.803-1.643 0-3.018.535-1.376.535-2.37 1.566-.955.994-1.528 2.408-.535 1.414-.535 3.133 0 1.72.535 3.134.573 1.414 1.529 2.445.993.994 2.369 1.529 1.375.535 3.019.535 1.91 0 3.439-.803 1.566-.802 2.866-2.33l4.814 4.356q-1.948 2.407-4.89 3.744-2.905 1.3-6.612 1.3zm11.202-.535 11.808-26.75h7.451l11.846 26.75h-7.872l-9.247-23.042h2.98l-9.247 23.042zm6.458-5.197 1.949-5.58h13.068l1.95 5.58zm26.787 5.197V2.126h7.566v20.75h12.763v6z" style="font-weight:800;font-size:35.9472px;line-height:0;font-family:Montserrat;-inkscape-font-specification:'Montserrat Ultra-Bold';fill:#6b7280;stroke-width:.192565" aria-label="TROPICAL" transform="translate(-1.747 -1.592)"/></svg>